<?xml version="1.0" encoding="UTF-8"?>
<svg width="20px" height="20px" viewBox="0 0 20 20" version="1.1" xmlns="http://www.w3.org/2000/svg" xmlns:xlink="http://www.w3.org/1999/xlink">
    <!-- Generator: Sketch 43.2 (39069) - http://www.bohemiancoding.com/sketch -->
    <title>Facebook</title>
    <desc>Created with Sketch.</desc>
    <defs></defs>
    <g id="Main-page" stroke="none" stroke-width="1" fill="none" fill-rule="evenodd">
        <g id="footer_mobile" transform="translate(-280.000000, -60.000000)" fill="#000000">
            <path d="M290.682648,80 L281.103846,80 C280.49403,80 280,79.5056631 280,78.8960845 L280,61.1038379 C280,60.494104 280.494108,60 281.103846,60 L298.896231,60 C299.505815,60 300,60.494104 300,61.1038379 L300,78.8960845 C300,79.5057407 299.505737,80 298.896231,80 L293.799711,80 L293.799711,72.2548978 L296.399384,72.2548978 L296.788648,69.236494 L293.799711,69.236494 L293.799711,67.3094339 C293.799711,66.4355364 294.04238,65.840004 295.295537,65.840004 L296.89388,65.8393056 L296.89388,63.1396211 C296.617452,63.1028368 295.66866,63.0206543 294.564813,63.0206543 C292.260348,63.0206543 290.682648,64.4273026 290.682648,67.0105037 L290.682648,69.236494 L288.076301,69.236494 L288.076301,72.2548978 L290.682648,72.2548978 L290.682648,80 L290.682648,80 Z" id="Facebook"></path>
        </g>
    </g>
</svg>