<?xml version="1.0" encoding="UTF-8"?>
<svg width="20px" height="20px" viewBox="0 0 20 20" version="1.1" xmlns="http://www.w3.org/2000/svg" xmlns:xlink="http://www.w3.org/1999/xlink">
    <!-- Generator: Sketch 43.2 (39069) - http://www.bohemiancoding.com/sketch -->
    <title>Instagram</title>
    <desc>Created with Sketch.</desc>
    <defs></defs>
    <g id="Main-page" stroke="none" stroke-width="1" fill="none" fill-rule="evenodd">
        <g id="footer_mobile" transform="translate(-240.000000, -60.000000)" fill="#000000">
            <path d="M250.00002,60 C252.715837,60 253.056381,60.0115116 254.122987,60.0601777 C255.187371,60.1087248 255.914306,60.277786 256.55038,60.5250069 C257.207968,60.780524 257.765644,61.1224573 258.321613,61.6783866 C258.877543,62.2343557 259.219476,62.7920316 259.475033,63.44962 C259.722214,64.0856937 259.891275,64.8126294 259.939822,65.8770128 C259.988488,66.9436191 260,67.2841631 260,70.0000198 C260,72.7158369 259.988488,73.0563809 259.939822,74.1229872 C259.891275,75.1873706 259.722214,75.9143063 259.475033,76.55038 C259.219476,77.2079684 258.877543,77.7656443 258.321613,78.3216134 C257.765644,78.8775427 257.207968,79.219476 256.55038,79.4750328 C255.914306,79.722214 255.187371,79.8912752 254.122987,79.9398223 C253.056381,79.9884884 252.715837,80 250.00002,80 C247.284163,80 246.943619,79.9884884 245.877013,79.9398223 C244.812629,79.8912752 244.085694,79.722214 243.44962,79.4750328 C242.792032,79.219476 242.234356,78.8775427 241.678387,78.3216134 C241.122457,77.7656443 240.780524,77.2079684 240.525007,76.55038 C240.277786,75.9143063 240.108725,75.1873706 240.060178,74.1229872 C240.011512,73.0563809 240,72.7158369 240,70.0000198 C240,67.2841631 240.011512,66.9436191 240.060178,65.8770128 C240.108725,64.8126294 240.277786,64.0856937 240.525007,63.44962 C240.780524,62.7920316 241.122457,62.2343557 241.678387,61.6783866 C242.234356,61.1224573 242.792032,60.780524 243.44962,60.5250069 C244.085694,60.277786 244.812629,60.1087248 245.877013,60.0601777 C246.943619,60.0115116 247.284163,60 250.00002,60 Z M250.00002,61.8017986 C247.329892,61.8017986 247.013602,61.8120002 245.959142,61.8601106 C244.984152,61.9045691 244.454659,62.0674776 244.102286,62.2044256 C243.635512,62.385832 243.302391,62.6025274 242.952479,62.9524791 C242.602527,63.302391 242.385832,63.635512 242.204426,64.1022862 C242.067478,64.4546593 241.904569,64.9841517 241.860111,65.9591419 C241.812,67.0136015 241.801799,67.3298918 241.801799,70.0000198 C241.801799,72.6701082 241.812,72.9863985 241.860111,74.0408581 C241.904569,75.0158483 242.067478,75.5453407 242.204426,75.8977138 C242.385832,76.364488 242.602567,76.697609 242.952479,77.0475209 C243.302391,77.3974726 243.635512,77.614168 244.102286,77.7955744 C244.454659,77.9325224 244.984152,78.0954309 245.959142,78.1398894 C247.013482,78.1879998 247.329693,78.1982014 250.00002,78.1982014 C252.670307,78.1982014 252.986557,78.1879998 254.040858,78.1398894 C255.015848,78.0954309 255.545341,77.9325224 255.897714,77.7955744 C256.364488,77.614168 256.697609,77.3974726 257.047521,77.0475209 C257.397473,76.697609 257.614168,76.364488 257.795574,75.8977138 C257.932522,75.5453407 258.095431,75.0158483 258.139889,74.0408581 C258.188,72.9863985 258.198201,72.6701082 258.198201,70.0000198 C258.198201,67.3298918 258.188,67.0136015 258.139889,65.9591419 C258.095431,64.9841517 257.932522,64.4546593 257.795574,64.1022862 C257.614168,63.635512 257.397473,63.302391 257.047521,62.9524791 C256.697609,62.6025274 256.364488,62.385832 255.897714,62.2044256 C255.545341,62.0674776 255.015848,61.9045691 254.040858,61.8601106 C252.986398,61.8120002 252.670108,61.8017986 250.00002,61.8017986 Z M250.00002,64.8648681 C252.836073,64.8648681 255.135132,67.1639267 255.135132,70.0000198 C255.135132,72.8360733 252.836073,75.1351319 250.00002,75.1351319 C247.163927,75.1351319 244.864868,72.8360733 244.864868,70.0000198 C244.864868,67.1639267 247.163927,64.8648681 250.00002,64.8648681 Z M250.00002,73.3333333 C251.840958,73.3333333 253.333333,71.8409578 253.333333,70.0000198 C253.333333,68.1590422 251.840958,66.6666667 250.00002,66.6666667 C248.159042,66.6666667 246.666667,68.1590422 246.666667,70.0000198 C246.666667,71.8409578 248.159042,73.3333333 250.00002,73.3333333 Z M256.538035,64.6619866 C256.538035,65.3247354 256.000762,65.8619684 255.338013,65.8619684 C254.675304,65.8619684 254.138032,65.3247354 254.138032,64.6619866 C254.138032,63.9992379 254.675304,63.4619652 255.338013,63.4619652 C256.000762,63.4619652 256.538035,63.9992379 256.538035,64.6619866 Z" id="Instagram"></path>
        </g>
    </g>
</svg>